<svg xmlns="http://www.w3.org/2000/svg" viewBox="0 0 512 512"><defs><style>.cls-1{fill:#edeae6;}.cls-2{fill:#715947;}.cls-3{fill:#7a5f4c;}.cls-4{fill:#493e37;}.cls-5{fill:#37291d;}.cls-6{fill:#302317;}.cls-7{fill:#e6b0b2;}.cls-8{fill:#fffeef;}.cls-9{fill:#5e4838;}</style></defs><title>Artboard 3</title><g id="OBJECTS"><path class="cls-1" d="M456.35,119.63c2,15.69-19.6,23.49-31.07,28.45-1.15-2.17-1-4.89-2.34-6.94-1.53-2.3-4.63-3.38-5.67-5.94-1.25-3.08,1.21-6.48,1-9.81-.22-3.08-2.64-5.54-3.6-8.48a11.4,11.4,0,0,1,.49-7.69,84.59,84.59,0,0,1,18.35-3C441.7,105.8,455,109.29,456.35,119.63Z"/><path class="cls-2" d="M400.76,218.93c9.17,15.1,59.23,73.66,51.62,121.63C443.77,395,394.12,433,390.15,429.85c-1.89-1.48-11.17-5.8-12-8.05-3.91-10.22-5.12-21.45-3-28.25,13-8,22.64-20.71,29.09-34.55,5.51-11.78,8.91-24.77,7.95-37.74-.84-11.18-4.84-21.87-9.75-31.93-8.81-18-20.59-34.41-30.19-52s-17.11-37.1-16.21-57.13c.86-19.56,10-38.49,24.36-51.84a83,83,0,0,1,34.78-19.12,11.4,11.4,0,0,0-.49,7.69c1,2.94,3.38,5.4,3.6,8.48.21,3.33-2.25,6.73-1,9.81,1,2.56,4.14,3.64,5.67,5.94,1.33,2.05,1.19,4.77,2.34,6.94-1.58.68-3,1.31-4.08,1.89-9.12,4.87-18.52,10.2-24.19,18.84C387.34,183.6,391.62,203.81,400.76,218.93Z"/><path class="cls-3" d="M265.94,464.16a36.73,36.73,0,0,1,12.8,27.71,59.64,59.64,0,0,0-7.8.1c-4.08.35-8.09,1.37-12.17,1.5s-8.44-.74-11.39-3.55a12.78,12.78,0,0,1-3.63-9.71,20.93,20.93,0,0,1,3.34-10,30.87,30.87,0,0,1,10.63-10.53A21.16,21.16,0,0,1,265.94,464.16Z"/><path class="cls-1" d="M152.13,460.78A38,38,0,0,1,168.56,473a38.55,38.55,0,0,1-7.11,7.44c-8.23,6.45-21,8.23-28.82,1.29a13,13,0,0,1-4.11-6.51c-1.36-5.7,2.27-11.21,4.71-16.61A38.15,38.15,0,0,1,152.13,460.78Z"/><path class="cls-1" d="M266.86,381.2a87.42,87.42,0,0,0-4.73,26.11A64.78,64.78,0,0,0,264,427.65a143.54,143.54,0,0,0,7.72,19.77,45.7,45.7,0,0,0,2.75,5.18,65.24,65.24,0,0,0-10.92,3.51,33.56,33.56,0,0,0-3.3,1.7c-6.8-4-15.79-18.58-15.15-21.47-.09.29-3.43,8.89-7.64,18.52,9.79-24.46,16.4-50.31,25.27-75.14Z"/><path class="cls-1" d="M262.68,379.72c-8.87,24.83-15.48,50.68-25.27,75.14-3,7.06-6.56,14.66-9.57,20-1.09,1.94-2.11,4-3.16,6a33.74,33.74,0,0,0-35.53-10.14,25.49,25.49,0,0,0,2.17-8.36c1.41-10.87,1.19-21.85,1.35-32.79a24.75,24.75,0,0,0,.2-7.87c.13-4,.39-8,.86-12-.67,2.32-1.35,4.65-2.06,7a23,23,0,0,0-1.93-4.18c-4.53-7.62-13-12.44-16.94-20.38-4.51-8.95-2.37-19.61-2.31-29.64.08-12.44-3.44-25-10.74-35.13-3.56-4.94-8-9.34-11.69-14.18,3.71-14.76,8.13-29.35,10.79-44.32,3.16-17.84,3.71-36.65-2.41-53.73-3.38-8.13-9.06-15.87-14.3-23.94a51.56,51.56,0,0,0,9.13-.06c26.51-2.3,51.23-19.54,62.58-43.61,1.92-4,3.5-8.32,6.33-11.8s7.27-6.08,11.67-5.24c3.63.71,6.52,3.6,8.34,6.82s2.79,6.86,4.14,10.32c6.86,17.39,23,29.21,39.22,38.57,6.35,3.67,12.95,7.15,20.16,8.54a30.83,30.83,0,0,0,10.92.16c-.11.11-.21.23-.31.35-2,2.24-4,4.57-4.84,7.44-1.16,16.61,3.75,33.22,10.86,48.38,3.55,7.58,7.66,14.85,11.92,22.06a51.3,51.3,0,0,1-5,13.89c-4.24,8.15-10.13,15.34-14.83,23.23-4.5,7.53-8,16.1-7.31,24.8-.9.57-1.8,1.17-2.68,1.76A86.16,86.16,0,0,0,291.79,345a103.34,103.34,0,0,0-20.32,25.22,90.05,90.05,0,0,0-4.61,11Z"/><path class="cls-3" d="M207.83,470.32a34.14,34.14,0,0,1,16.85,10.53c-2.56,4.91-5.34,9.63-10,12.47-4.34,2.65-9.55,3.49-14.65,3.65-4.5.14-9.28-.29-12.9-3a12.41,12.41,0,0,1-3.67-14.83c1.38-2.93,3.9-5.18,5.47-8a4.25,4.25,0,0,0,.21-.43A34.08,34.08,0,0,1,207.83,470.32Z"/><path class="cls-1" d="M259.73,459.34c4.69-3.09,10.12-4.09,15.61-5.73a.65.65,0,0,0,0-1,1,1,0,0,0-.14-.3,47.48,47.48,0,0,1-2.58-5.27,134.27,134.27,0,0,1-7.25-22,68.15,68.15,0,0,1-1.13-17.76,79.86,79.86,0,0,1,6.43-29.45,67,67,0,0,1,7.23-12.37,127.4,127.4,0,0,1,13.79-17.11c0,15.57,4.77,31.51,16.53,41.38,5.71,4.79,12.92,8.09,16.83,14.4,3.2,5.2,3.67,11.71,6.89,16.88,3.33,5.36,9.11,8.58,14.78,11.3,8.09,3.85,16.57,7.09,25.46,8.24a47.48,47.48,0,0,0,15.28-.35c-.38,1.06-.77,2.11-1.18,3.15-6.87,17.11-21,30.79-37.65,38.84s-35.48,10.73-53.89,9.63c-5.37.77-10.72.28-16,.08a36.73,36.73,0,0,0-12.8-27.71,21.16,21.16,0,0,0-8.22-4.51c.41-.25.82-.49,1.25-.7A.52.52,0,0,0,259.73,459.34Z"/><path class="cls-3" d="M189.74,412.52a23,23,0,0,1,1.93,4.18q-5.78,19.23-13.4,37.79c-2.64,6.45-5.59,13-9.71,18.55a37.81,37.81,0,0,0-35.33-14.39c.08-.15.14-.31.22-.46,4.47-10.16,4.22-21.69,4.06-32.79-.49-34.74.86-69.76,8.5-103.66q1-4.28,2.05-8.55c3.66,4.84,8.13,9.24,11.69,14.18,7.3,10.1,10.82,22.69,10.74,35.13-.06,10-2.2,20.69,2.31,29.64C176.78,400.08,185.21,404.9,189.74,412.52Z"/><path class="cls-3" d="M389.25,394.37c3.11,15.14,3.25,31.2-1.77,45.8a47.48,47.48,0,0,1-15.28.35c-8.89-1.15-17.37-4.39-25.46-8.24-5.67-2.72-11.45-5.94-14.78-11.3-3.22-5.17-3.69-11.68-6.89-16.88-3.91-6.31-11.12-9.61-16.83-14.4-11.76-9.87-16.49-25.81-16.53-41.38.61-.65,1.25-1.31,1.9-2a99.15,99.15,0,0,1,20.81-15.43,42.15,42.15,0,0,1,5.08-2.17.46.46,0,0,0,.31-.57.44.44,0,0,0-.55-.31,56.88,56.88,0,0,0-14.14,7.17c-.65-8.7,2.81-17.27,7.31-24.8,4.7-7.89,10.59-15.08,14.83-23.23a51.3,51.3,0,0,0,5-13.89c4.28,7.21,8.71,14.32,12.95,21.55,10,17.16,18.88,35,27.16,53C379.31,362.74,385.91,378.11,389.25,394.37Z"/><path class="cls-3" d="M328.06,168.5a24.85,24.85,0,0,1-.82,8.85,25.54,25.54,0,0,1-4.09,7c-2.71,3.64-5.57,7.16-8.52,10.58a30.83,30.83,0,0,1-10.92-.16c-7.21-1.39-13.81-4.87-20.16-8.54-16.2-9.36-32.36-21.18-39.22-38.57-1.35-3.46-2.32-7.07-4.14-10.32s-4.71-6.11-8.34-6.82c-4.4-.84-8.86,1.76-11.67,5.24s-4.41,7.76-6.33,11.8c-11.35,24.07-36.07,41.31-62.58,43.61a51.56,51.56,0,0,1-9.13.06c-6-9.26-11.39-18.93-12-30.11-.5-9.57,2.72-18.91,6.35-27.78a286.69,286.69,0,0,1,19.23-38.59c4.24-12.6,8.54-24.72,13.62-36.5,5.37-12.51,12.11-25.19,23.52-32.57a6.8,6.8,0,0,1,3-1.27c3.31-.34,5.38,3.34,6.57,6.43q7.22,18.87,14.42,37.73c14.34-.38,33.06,2.5,47,7.17,10.79-17,31.56-36.29,36.7-35.8,12.93,1.27,17.52,50.63,13.48,75.46C320.12,134.7,327.33,149.6,328.06,168.5Z"/><path class="cls-4" d="M319.26,327.88a56.88,56.88,0,0,0-14.14,7.17c-.9.57-1.8,1.17-2.68,1.76A86.16,86.16,0,0,0,291.79,345a103.34,103.34,0,0,0-20.32,25.22,90.05,90.05,0,0,0-4.61,11,87.42,87.42,0,0,0-4.73,26.11A64.78,64.78,0,0,0,264,427.65a143.54,143.54,0,0,0,7.72,19.77,45.7,45.7,0,0,0,2.75,5.18,65.24,65.24,0,0,0-10.92,3.51,33.56,33.56,0,0,0-3.3,1.7,2.39,2.39,0,0,0,.45.28A17.71,17.71,0,0,0,259,459a.52.52,0,0,0,.76.39c4.69-3.09,10.12-4.09,15.61-5.73a.65.65,0,0,0,0-1,1,1,0,0,0-.14-.3,47.48,47.48,0,0,1-2.58-5.27,134.27,134.27,0,0,1-7.25-22,68.15,68.15,0,0,1-1.13-17.76,79.86,79.86,0,0,1,6.43-29.45,67,67,0,0,1,7.23-12.37,127.4,127.4,0,0,1,13.79-17.11c.61-.65,1.25-1.31,1.9-2a99.15,99.15,0,0,1,20.81-15.43,42.15,42.15,0,0,1,5.08-2.17.46.46,0,0,0,.31-.57A.44.44,0,0,0,319.26,327.88Z"/><path d="M260.2,457.81a2.39,2.39,0,0,0,.45.28A17.71,17.71,0,0,0,259,459a.55.55,0,0,1,0-.18A7.2,7.2,0,0,1,260.2,457.81Z"/><path class="cls-4" d="M280.56,340.29q-4.44,8.08-8.14,16.54c-2.5,5.62-4.79,11.32-6.92,17.09-4.26,11.54-8,23.28-11.66,35s-7.38,23.52-11.64,35.11c-2.14,5.79-4.38,11.54-6.84,17.2s-5.17,11.22-8.12,16.64a.36.36,0,0,1-.49.15.36.36,0,0,1-.14-.48,274.43,274.43,0,0,0,14.36-34c4.12-11.59,7.78-23.35,11.44-35.11s7.47-23.51,11.85-35.05q3.3-8.65,7.15-17.09t8.52-16.44a.36.36,0,0,1,.49-.13A.37.37,0,0,1,280.56,340.29Z"/><path class="cls-4" d="M141.17,471.43a15.72,15.72,0,0,0-3.49,5.86,15.27,15.27,0,0,0-.59,6.8.37.37,0,0,1-.31.41.38.38,0,0,1-.38-.22,11.08,11.08,0,0,1-.15-7.45,10.92,10.92,0,0,1,4.47-5.95.36.36,0,0,1,.5.12A.35.35,0,0,1,141.17,471.43Z"/><path class="cls-4" d="M148.69,472.78a19.92,19.92,0,0,0-2.71,6.51,18.45,18.45,0,0,0-.38,3.48,17.46,17.46,0,0,0,.07,1.77,2.12,2.12,0,0,0,.4,1.41l0,0a.36.36,0,0,1-.42.57,1.82,1.82,0,0,1-.77-.86,4.58,4.58,0,0,1-.32-1,11.07,11.07,0,0,1-.31-1.9,13.75,13.75,0,0,1,.23-3.84,12.84,12.84,0,0,1,3.63-6.66.37.37,0,0,1,.51,0A.38.38,0,0,1,148.69,472.78Z"/><path class="cls-4" d="M195.7,481.31a20,20,0,0,0-2.11,3.35,18.6,18.6,0,0,0-1.33,3.68,17.89,17.89,0,0,0-.48,3.86,6.48,6.48,0,0,0,.84,3.64.37.37,0,0,1-.1.5.38.38,0,0,1-.45,0,4.88,4.88,0,0,1-1.18-1.9,8.91,8.91,0,0,1-.42-2.14,13.62,13.62,0,0,1,.34-4.27,13.31,13.31,0,0,1,4.38-7.18.35.35,0,0,1,.5,0,.36.36,0,0,1,0,.45Z"/><path class="cls-4" d="M206.05,482.73a19,19,0,0,0-1.36,3.6,16.47,16.47,0,0,0-.53,3.75,12.23,12.23,0,0,0,.41,3.7,4.12,4.12,0,0,0,2.07,2.72h0a.37.37,0,0,1,.18.48.38.38,0,0,1-.39.21,3.72,3.72,0,0,1-1.94-1.1,6.12,6.12,0,0,1-1.17-1.87,10.55,10.55,0,0,1-.67-4.17,13.06,13.06,0,0,1,.77-4.11,14.68,14.68,0,0,1,.85-1.9,12.78,12.78,0,0,1,1.17-1.7.36.36,0,0,1,.51,0A.36.36,0,0,1,206.05,482.73Z"/><path class="cls-4" d="M252.14,480.07a10.17,10.17,0,0,0-3.13,5.07c-.32,1-.55,2-.8,3a3.67,3.67,0,0,0,0,2.73v0a.37.37,0,0,1-.12.5.36.36,0,0,1-.42,0,2.61,2.61,0,0,1-.82-1.71,7.12,7.12,0,0,1,.06-1.74,18.69,18.69,0,0,1,.67-3.26,10,10,0,0,1,1.52-3.08,6.42,6.42,0,0,1,2.68-2.16.36.36,0,0,1,.37.61Z"/><path class="cls-4" d="M260.81,482.44a14,14,0,0,0-3,5.86,13.78,13.78,0,0,0,.05,6.57.37.37,0,0,1-.26.44.37.37,0,0,1-.41-.18,10.58,10.58,0,0,1,3.12-13.22.35.35,0,0,1,.5.09A.36.36,0,0,1,260.81,482.44Z"/><path class="cls-5" d="M190.09,138.24c0-3.2,2.32-5.79,5.18-5.79s5.18,2.59,5.18,5.79-2.32,5.78-5.18,5.78S190.09,141.43,190.09,138.24Z"/><path class="cls-5" d="M257.07,142.33c0-3.19,2.32-5.78,5.18-5.78s5.18,2.59,5.18,5.78-2.32,5.78-5.18,5.78S257.07,145.53,257.07,142.33Z"/><path class="cls-6" d="M212.35,162.29a.38.38,0,0,0,.42.06c.12,0,.2-.29.18-.32v0h0v0l0,.09.09.19.22.38q.23.39.48.75a10.61,10.61,0,0,0,1.12,1.37,9,9,0,0,0,2.75,2.06,7.6,7.6,0,0,0,3.27.75,4.29,4.29,0,0,0,2.93-1.06,11.75,11.75,0,0,0,3.51-5.86,27.35,27.35,0,0,0,.74-7.16.36.36,0,0,1,.36-.36.37.37,0,0,1,.36.31,21.94,21.94,0,0,1-.19,7.53,13.47,13.47,0,0,1-1.38,3.62,10.66,10.66,0,0,1-2.46,3.09,5.82,5.82,0,0,1-3.89,1.33,8.42,8.42,0,0,1-3.84-1,9.87,9.87,0,0,1-3-2.52,11.5,11.5,0,0,1-1.08-1.6c-.15-.28-.3-.56-.43-.85l-.19-.45-.08-.24,0-.13,0-.07V162s.07-.29.19-.32a.36.36,0,0,1,.43.57A.35.35,0,0,1,212.35,162.29Z"/><path class="cls-6" d="M229.05,154.66a35.54,35.54,0,0,0,.53,7,8.88,8.88,0,0,0,.37,1.59c.12.24.19.49.33.72l.42.69a7.61,7.61,0,0,0,2.39,2.13,6.56,6.56,0,0,0,6.18.23,15.89,15.89,0,0,0,5.22-4.35h0a.35.35,0,0,1,.5,0,.36.36,0,0,1,.07.47,14.28,14.28,0,0,1-5.24,5.11,7.79,7.79,0,0,1-7.48-.11,8.86,8.86,0,0,1-2.83-2.62l-.49-.84a8.3,8.3,0,0,1-.39-.91,7.52,7.52,0,0,1-.37-1.88,25.39,25.39,0,0,1,.07-7.23.36.36,0,0,1,.42-.29A.35.35,0,0,1,229.05,154.66Z"/><path class="cls-7" d="M169.26,88.35c.24-4.29.86-5.16,2.28-9.21a11.29,11.29,0,0,1,3.37-5.44,1.62,1.62,0,0,1,1.53-.41,1.78,1.78,0,0,1,.83,1.33,40.94,40.94,0,0,1,1.24,8.52,22.84,22.84,0,0,1,2.22-8.1c.29-.59.85-1.27,1.46-1a1.3,1.3,0,0,1,.62,1,17.3,17.3,0,0,1,.49,4.91,15.92,15.92,0,0,1,3-7c.38-.51,1-1,1.58-.69a1.27,1.27,0,0,1,.44.73,9,9,0,0,1,.27,4,75.88,75.88,0,0,1,11.84-5.53c-2-8.71-4-17.44-5.23-26.3a36,36,0,0,0-1.42-7.3,3.09,3.09,0,0,0-1.07-1.64c-1-.67-2.36-.1-3.38.55C183.76,40.27,168.74,56.51,169.26,88.35Z"/><path class="cls-7" d="M302.77,101.86c-.3-3.86-.5-9.53-4.08-10.34-1.93-.44-3.39,3.13-4.77,5.65,1-2.62,2.08-7.9-.44-8.6-1-.29-4.4,3.27-5.07,4.78a16,16,0,0,0,.42-7.61c-.12-.62-.48-1.39-1.11-1.32a1.21,1.21,0,0,0-.71.45,9.11,9.11,0,0,0-2,3.43c-2.41-3.63-6.37-5.8-10.06-8.53C280.42,71.63,296,52.69,297.78,51a3.07,3.07,0,0,1,1.69-1c1.21-.15,2.16,1,2.78,2C305.67,57.65,310.67,77.65,302.77,101.86Z"/><path class="cls-4" d="M178,305.14c.7,6.7,1.65,13.37,3,20a148.26,148.26,0,0,0,5.15,19.46c2.15,6.34,5,12.49,6.94,19a69.66,69.66,0,0,1,2.7,20.18c0,6.78-.47,13.51-.75,20.24l-.94,20.21-1,20.2L192,464.61a.36.36,0,0,1-.38.34.35.35,0,0,1-.34-.37l.69-20.21.82-20.22.81-20.21c.24-6.73.66-13.48.62-20.18A69.06,69.06,0,0,0,191.72,364c-1.87-6.42-4.66-12.58-6.79-19a146.39,146.39,0,0,1-5.06-19.65c-1.22-6.65-2.05-13.36-2.63-20.09a.37.37,0,0,1,.33-.39A.37.37,0,0,1,178,305.14Z"/><path class="cls-7" d="M228.87,155.21c2.76-.32,5.29-3.54,5.84-4.75a3.08,3.08,0,0,0,.3-1.54c-.13-.95-1.29-2.55-3.81-1.18a6.16,6.16,0,0,1-3.1.82,6.48,6.48,0,0,1-2.17-.58c-.71-.25-1.82-.89-3-.14a2.18,2.18,0,0,0-.78,1.67c0,2.38,1.86,3.54,2.85,4.17S227.75,155.33,228.87,155.21Z"/><path class="cls-8" d="M183.48,155.43a395.2,395.2,0,0,0-48.76,7.4c-16.23,3.51-32.6,7.88-48,14.21-.71.3-.45,1.44.33,1.2,15.68-4.84,31.22-9.77,47.23-13.44a391.49,391.49,0,0,1,49.18-8C184.35,156.72,184.37,155.35,183.48,155.43Z"/><path class="cls-8" d="M186.85,165.86a319.47,319.47,0,0,0-48.38,15.61c-15.42,6.38-30.65,13.77-44.6,23a.69.69,0,0,0,.7,1.18c14.71-8.34,29.53-16.33,45.18-22.81a319.76,319.76,0,0,1,47.52-15.42C188.28,167.17,187.85,165.62,186.85,165.86Z"/><path class="cls-8" d="M347.87,179.44c-5.72-3.95-12.66-6.16-19.16-8.45-7-2.49-14.19-4.75-21.41-6.7a282.66,282.66,0,0,0-42.79-8.09c-.41,0-.41.6,0,.64a277.93,277.93,0,0,1,42.58,8.24c6.76,1.87,13.47,4,20.06,6.4,6.89,2.53,13.85,5.13,20.12,9C347.93,180.87,348.49,179.87,347.87,179.44Z"/><path class="cls-8" d="M349.41,200.46c-7.06-4.24-14.51-7.87-21.81-11.7-7.13-3.75-14.25-7.52-21.4-11.23-13.42-7-27.15-13.48-41.65-17.86a.48.48,0,0,0-.26.93c14.71,4.52,28.5,11.31,42.16,18.3,7.05,3.6,14.08,7.25,21.11,10.89,7.19,3.71,14.3,7.65,21.69,11C349.43,200.82,349.59,200.57,349.41,200.46Z"/><path class="cls-9" d="M182.74,232.93q-.87,2.38-1.76,4.77c-.59,1.58-1.23,3.16-1.71,4.78-.27.93,1.07,1.24,1.42.39.63-1.57,1.11-3.2,1.63-4.8s1.05-3.22,1.57-4.82C184.13,232.51,183,232.22,182.74,232.93Z"/><path class="cls-9" d="M186.6,240.14q-1.14,2.61-2.3,5.2c-.39.87-.77,1.74-1.15,2.61a9.89,9.89,0,0,0-.94,2.89,1.08,1.08,0,0,0,.79,1,1.12,1.12,0,0,0,1.22-.49,10.36,10.36,0,0,0,1.21-2.69c.3-.87.61-1.73.91-2.6q.93-2.64,1.85-5.28C188.52,239.89,187,239.24,186.6,240.14Z"/><path class="cls-9" d="M189.24,248.34a1.25,1.25,0,0,0-1.69.44,12.39,12.39,0,0,0-1.46,4.08,10.92,10.92,0,0,0-.19,2.28,4.27,4.27,0,0,0,.19,1.23c.13.37.28.72.44,1.08a1,1,0,0,0,1.11.45,1,1,0,0,0,.72-.95c0-.17,0-.34,0-.51s0-.17,0-.07l0-.18a9.23,9.23,0,0,0,.06-1.18c0-.3,0-.6,0-.91l0-.38,0-.26c0,.12,0,.11,0-.05a10.81,10.81,0,0,1,.41-1.77c.09-.28.19-.56.3-.83l0-.08a2.56,2.56,0,0,1,.11-.24c.07-.16.15-.31.23-.46A1.25,1.25,0,0,0,189.24,248.34Z"/><path class="cls-9" d="M298.76,205a.79.79,0,0,0-.77.78l-.6,5.75c0,.29-.07.59-.1.88a2.36,2.36,0,0,0,.19,1.05.63.63,0,0,0,1.13.15,2.37,2.37,0,0,0,.4-1.05c0-.3.05-.59.07-.89.06-.66.11-1.32.16-2l.3-3.91A.78.78,0,0,0,298.76,205Z"/><path class="cls-9" d="M292.53,209.84a.71.71,0,0,0-1.42,0c-.05,3-.16,5.92-.05,8.88a.76.76,0,0,0,1.51,0C292.69,215.76,292.58,212.8,292.53,209.84Z"/><path class="cls-9" d="M150.09,436.53a32.57,32.57,0,0,0-.72-5.19,1.58,1.58,0,0,0-1.94-1.1,1.61,1.61,0,0,0-1.11,1.94,24.65,24.65,0,0,1,.59,4.53c0,.79,0,1.58,0,2.37a20.14,20.14,0,0,0,.33,2.56,1.13,1.13,0,0,0,1.08.83,1.17,1.17,0,0,0,1.08-.83c.16-.39.32-.78.45-1.17a7.47,7.47,0,0,0,.23-1.48A18.36,18.36,0,0,0,150.09,436.53Z"/><path class="cls-9" d="M154.79,436.48c-.07-.6-.15-1.21-.22-1.81l-.45-3.55a1.09,1.09,0,0,0-1.07-1.08,1.11,1.11,0,0,0-1.08,1.08l.22,3.62c0,.58.08,1.16.11,1.74l.06.94a3,3,0,0,0,.07.6,1.46,1.46,0,0,0,.48.71,1.11,1.11,0,0,0,1.72-.22C155.09,437.89,154.88,437.18,154.79,436.48Z"/><path class="cls-9" d="M150.89,424.38c-.22-1.29-.44-2.57-.65-3.85a1.36,1.36,0,0,0-1.67-.94,1.39,1.39,0,0,0-.94,1.66,40.48,40.48,0,0,0,1.91,7.62,1,1,0,0,0,1.06.43,1,1,0,0,0,.69-.91A20.73,20.73,0,0,0,150.89,424.38Z"/><path class="cls-9" d="M287.24,326.37c-.15-1.06-2-.82-1.89.25a15.46,15.46,0,0,1-.35,5.55,42.86,42.86,0,0,1-2,5.25c-.33.82.86,1.39,1.41.83a11,11,0,0,0,2.69-5.6A17.45,17.45,0,0,0,287.24,326.37Z"/><path class="cls-9" d="M294.33,323.89a1.21,1.21,0,0,0-1.17-1.17,1.19,1.19,0,0,0-1.17,1.17,27,27,0,0,1-.31,5.47c-.15.91-.38,1.8-.56,2.71l-.3,1.41a3.81,3.81,0,0,0,0,1.68,1.15,1.15,0,0,0,1.91.51,3.31,3.31,0,0,0,.91-1.41c.15-.45.28-.92.39-1.38a20.78,20.78,0,0,0,.42-3.14A29.33,29.33,0,0,0,294.33,323.89Z"/><path class="cls-9" d="M380.49,170.58c-.42-.22-.81-.48-1.22-.72s-.81-.42-1.2-.66-.83-.49-1.22-.77l-.25-.18-.1-.07-.54-.45a12.67,12.67,0,0,1-1-1c-.16-.17-.31-.34-.46-.52l-.14-.18-.13-.16a13.15,13.15,0,0,1-1.43-2.5,1.46,1.46,0,0,0-2-.52,1.52,1.52,0,0,0-.53,2,14.16,14.16,0,0,0,3.7,5,12.61,12.61,0,0,0,2.67,1.85,8.76,8.76,0,0,0,1.55.65,10.92,10.92,0,0,0,1.73.24A1.11,1.11,0,0,0,380.49,170.58Z"/><path class="cls-9" d="M379.59,177.72c-.26-.08-.53-.17-.79-.27-.06,0-.45-.19-.15-.06l-.57-.23c-.51-.16-1-.34-1.49-.53l-.1,0-.38-.18c-.23-.12-.46-.24-.68-.37s-.49-.29-.72-.45l-.29-.2-.13-.1a12.43,12.43,0,0,1-1.14-1,7,7,0,0,1-.52-.57l-.21-.25-.16-.21a11.11,11.11,0,0,1-.81-1.32c-.12-.23-.23-.46-.33-.7L371,171l-.14-.39a1.51,1.51,0,1,0-2.91.8,13.07,13.07,0,0,0,4.13,6.19,13.43,13.43,0,0,0,3.2,2,7.84,7.84,0,0,0,3.94.7,1.3,1.3,0,0,0,.34-2.56Z"/><path class="cls-9" d="M409.58,242.83a1.55,1.55,0,0,0-2.14,0l-2,2.12c-.34.35-.67.7-1,1a2.34,2.34,0,0,0-.42.52l-.14.3-.32.69A1.11,1.11,0,0,0,405,249l.64-.32a2.86,2.86,0,0,0,.81-.56l1-1.06,2.06-2.1A1.52,1.52,0,0,0,409.58,242.83Z"/><path class="cls-9" d="M410,247.73a8.52,8.52,0,0,1-1,1.77,14.38,14.38,0,0,1-1.51,1.61c-.27.25-.56.48-.83.72l-.41.36-.21.17-.17.13-.05,0-.22.15c-.23.17-.45.33-.67.51a5.62,5.62,0,0,0-.89,1.05,1.36,1.36,0,0,0,1.53,2,3.7,3.7,0,0,0,1.31-.59,6.5,6.5,0,0,0,1-.95,12.56,12.56,0,0,0,1.55-2.07,21.26,21.26,0,0,0,1.83-4.37C411.46,247.54,410.37,247.05,410,247.73Z"/><path class="cls-9" d="M417.48,252.47a1.3,1.3,0,0,0-1.75.46c-.58.79-1.15,1.59-1.72,2.39l-.83,1.15a13.06,13.06,0,0,0-.77,1.3,1.21,1.21,0,0,0,.31,1.56,1.19,1.19,0,0,0,1.59-.09,14.2,14.2,0,0,0,1.11-1.35c.27-.41.55-.81.83-1.21l1.69-2.46A1.29,1.29,0,0,0,417.48,252.47Z"/><path class="cls-9" d="M416.55,406.32a1.65,1.65,0,0,0-.28-.5,4.7,4.7,0,0,0-.5-.38l-.85-.63c-.53-.39-1-.8-1.54-1.25a23,23,0,0,1-2.87-3.05.77.77,0,0,0-1-.06.76.76,0,0,0-.2,1,23.89,23.89,0,0,0,3,3.31c.55.51,1.13,1,1.73,1.45.28.21.56.41.86.6a4.74,4.74,0,0,0,.54.31,1.65,1.65,0,0,0,.66.06A.58.58,0,0,0,416.55,406.32Z"/><path class="cls-9" d="M423.93,396.69a124.21,124.21,0,0,1-11.33-10.55,1.63,1.63,0,0,0-2.3,2.3A65.07,65.07,0,0,0,422,399.13C423.49,400.12,425.28,397.84,423.93,396.69Z"/><path class="cls-9" d="M431.13,389c-.29-.16-.57-.34-.86-.51A8.6,8.6,0,0,0,429,388l-.2-.08h0l-.44-.2c-.33-.16-.66-.33-1-.51s-.6-.35-.88-.54c-.08-.06-.61-.47-.78-.56.06,0,.11.1-.05,0h0l-.18-.16-.42-.36c-.27-.24-.53-.49-.79-.76a1.67,1.67,0,0,0-2.36,2.37,17.15,17.15,0,0,0,3.79,2.93,19.48,19.48,0,0,0,2.26,1.08,5.17,5.17,0,0,0,1.25.39,9.08,9.08,0,0,0,1.28.05A1.39,1.39,0,0,0,431.13,389Z"/><path class="cls-9" d="M425.68,386.07s0,0-.06,0h0Z"/><path class="cls-9" d="M436.94,380l-.16-.06a5.62,5.62,0,0,0-.56-.25l-.4-.14-.16-.06h0l-.12,0-.16-.07-.34-.18c-.24-.12-.47-.26-.7-.4s-.38-.29-.57-.41c.06.06.14.12,0,0l0,0-.05,0,.05,0-.13-.1-.29-.26c-.19-.18-.39-.37-.57-.57s-.17-.19-.26-.29-.36-.46-.09-.1a1.69,1.69,0,0,0-.87-.67,1.38,1.38,0,0,0-1.28.26,1.36,1.36,0,0,0-.55.95,1.51,1.51,0,0,0,.4,1.23,10.6,10.6,0,0,0,2.77,2.44,10.42,10.42,0,0,0,1.74.86,5.57,5.57,0,0,0,.81.29,7.36,7.36,0,0,0,1.16.15,1.3,1.3,0,0,0,1.28-1.13A1.33,1.33,0,0,0,436.94,380Z"/><polygon class="cls-9" points="433.75 378.41 433.75 378.41 433.75 378.41 433.75 378.41"/><path class="cls-9" d="M376.72,398.27q-.89-3.31-2.09-6.53a1.49,1.49,0,0,0-1.78-1,1.47,1.47,0,0,0-1,1.78q1.13,3.18,1.93,6.44a53.6,53.6,0,0,0,1.64,6.52,1.24,1.24,0,0,0,2.43-.33A22.36,22.36,0,0,0,376.72,398.27Z"/><path class="cls-9" d="M370.41,401a27.43,27.43,0,0,0-1.06-4.56,1.65,1.65,0,0,0-3.18.88c.22.74.42,1.5.59,2.27.07.32.13.65.19,1s.07.45.1.67,0,.08,0,.1a.75.75,0,0,0,0,.11c.09.72.13,1.45.18,2.17,0,.39.06.78.1,1.17a10.11,10.11,0,0,0,.31,1.37,1.38,1.38,0,0,0,2.65,0,7.28,7.28,0,0,0,.37-2.54A21,21,0,0,0,370.41,401Z"/><path class="cls-9" d="M370,389.86a5,5,0,0,0-.29-1.22c-.2-.64-.43-1.26-.65-1.89-.46-1.28-.91-2.56-1.36-3.83a1.52,1.52,0,0,0-1.84-1,1.5,1.5,0,0,0-1,1.83l1.39,3.82c.23.63.45,1.26.7,1.88a7.77,7.77,0,0,0,.51,1.14c.19.29.4.56.59.84a1.14,1.14,0,0,0,1.24.5,1.1,1.1,0,0,0,.81-1.06C370,390.51,370,390.18,370,389.86Z"/></g></svg>